<?xml version="1.0" encoding="utf-8"?>
<!-- Generator: Adobe Illustrator 24.3.0, SVG Export Plug-In . SVG Version: 6.00 Build 0)  -->
<svg version="1.1" id="Layer_1" xmlns="http://www.w3.org/2000/svg" xmlns:xlink="http://www.w3.org/1999/xlink" x="0px" y="0px"
	 viewBox="0 0 24 24" style="enable-background:new 0 0 24 24;" xml:space="preserve">
<style type="text/css">
	.st0{fill:#FFFFFF;}
</style>
<path class="st0" d="M12,0C5.4,0,0,5.4,0,12s5.4,12,12,12c2.5,0,4.9-0.8,6.8-2.1l-3.1-3.1c-3.7,2.1-8.4,0.7-10.5-3s-0.7-8.4,3-10.5
	c2.3-1.3,5.1-1.3,7.5,0l3.1-3.1C16.8,0.7,14.4,0,12,0z M21.9,5.2l-3.1,3.1c0.6,1.1,1,2.4,1,3.7c0,1.3-0.3,2.6-1,3.7l3.1,3.1
	c1.4-2,2.1-4.4,2.1-6.8C24,9.5,23.2,7.1,21.9,5.2z"/>
</svg>
